# xmcd
#
# Track frame offsets:
#	150
#	24035
#	36887
#	54780
#	68180
#	83185
#	103722
#	122310
#	134450
#	151235
#	164772
#	182427
#	198887
#
# Disc length: 3036 seconds
#
# Revision: 1
# Processed by: cddbd v1.4PL0 Copyright (c) Steve Scherf et al.
# Submitted via: EasyCDDAExtractor 6.0.0.1
#
DISCID=9b0bda0d
DTITLE=Various Artist - Russian Romances
DYEAR=1995
DGENRE=National Folk
TTITLE0=Nadir - Ajomies
TTITLE1=Nadir - Oi niitä aikoja
TTITLE2=Kuljen yksin
TTITLE3=Tummat silmät
TTITLE4=Tuohisormukset
TTITLE5=Kaksi kitaraa
TTITLE6=Krysanteemi
TTITLE7=Kirkas yö
TTITLE8=Jarun kapakkaan
TTITLE9=Rakkaani
TTITLE10=Soi kitarani
TTITLE11=Läahtevät mustalaiset
TTITLE12=Kirje Äidille
EXTD=
EXTT0=
EXTT1=
EXTT2=
EXTT3=
EXTT4=
EXTT5=
EXTT6=
EXTT7=
EXTT8=
EXTT9=
EXTT10=
EXTT11=
EXTT12=
PLAYORDER=
